<svg xmlns="http://www.w3.org/2000/svg" width="165" height="55" viewBox="0 0 165 55">
  <defs>
    <style>
      .cls-1, .cls-2, .cls-3 {
        fill-rule: evenodd;
      }
      .cls-1 {
        fill: #23267f;
      }
      .cls-2 {
        fill: #103a89;
      }
    </style>
  </defs>
  <path id="Shape_3_copy" data-name="Shape 3 copy" class="cls-1" d="M42.58,20.22a20.593,20.593,0,0,1-7.249,15.549L43,55H0V0H22C33.24,0,42.58,10.309,42.58,20.22Z"/>
  <path id="Shape_3_copy_2" data-name="Shape 3 copy 2" class="cls-2" d="M57.037,35.768L65,55H46.48L39,36.36c2.558-2.812,6.872-8.061,6.872-16.147C45.872,5.251,33.006.152,33,0H44C55.24,0,64.174,10.309,64.174,20.22A20.686,20.686,0,0,1,57.037,35.768Z"/>
  <path id="resistors" class="cls-3" d="M160.225,42.595a7.534,7.534,0,0,0,.941.4q0.526,0.187,1.068.407a9.775,9.775,0,0,1,1.067.514,4.034,4.034,0,0,1,.941.721,3.348,3.348,0,0,1,.668,1.021,3.59,3.59,0,0,1,.253,1.408,4.014,4.014,0,0,1-.38,1.788,3.561,3.561,0,0,1-1.075,1.294,4.83,4.83,0,0,1-1.641.781,7.74,7.74,0,0,1-2.055.26,7.829,7.829,0,0,1-1.275-.1,7.747,7.747,0,0,1-1.088-.254,5.634,5.634,0,0,1-.8-0.314,1.973,1.973,0,0,1-.468-0.3,0.925,0.925,0,0,1-.226-0.44,3.653,3.653,0,0,1-.08-0.887,5.7,5.7,0,0,1,.026-0.621,1.63,1.63,0,0,1,.08-0.374,0.351,0.351,0,0,1,.134-0.187,0.391,0.391,0,0,1,.2-0.047,1,1,0,0,1,.434.167q0.286,0.167.714,0.367a7.513,7.513,0,0,0,.994.374,4.4,4.4,0,0,0,1.288.174,3.17,3.17,0,0,0,.807-0.093,2.025,2.025,0,0,0,.614-0.267,1.128,1.128,0,0,0,.394-0.441,1.354,1.354,0,0,0,.133-0.614,1.017,1.017,0,0,0-.247-0.687,2.189,2.189,0,0,0-.653-0.5,7.643,7.643,0,0,0-.921-0.4q-0.514-.187-1.055-0.414a9.6,9.6,0,0,1-1.054-.52,4,4,0,0,1-.921-0.721,3.29,3.29,0,0,1-.654-1.028,3.777,3.777,0,0,1-.247-1.441,3.651,3.651,0,0,1,.334-1.568,3.411,3.411,0,0,1,.961-1.221,4.549,4.549,0,0,1,1.528-.787,6.794,6.794,0,0,1,2.022-.28,7.252,7.252,0,0,1,1.088.08,7.972,7.972,0,0,1,.954.2,4.549,4.549,0,0,1,.72.26,2.4,2.4,0,0,1,.421.24,0.678,0.678,0,0,1,.18.2,0.871,0.871,0,0,1,.08.24c0.018,0.093.033,0.209,0.047,0.347s0.02,0.309.02,0.514q0,0.36-.02.587a1.573,1.573,0,0,1-.067.36,0.316,0.316,0,0,1-.127.18,0.36,0.36,0,0,1-.187.047,0.908,0.908,0,0,1-.373-0.14,6.807,6.807,0,0,0-.634-0.3,7.484,7.484,0,0,0-.881-0.3,4.242,4.242,0,0,0-1.141-.14,2.935,2.935,0,0,0-.787.093,1.5,1.5,0,0,0-.548.267,1.126,1.126,0,0,0-.32.407,1.193,1.193,0,0,0-.107.5,1,1,0,0,0,.254.694A2.319,2.319,0,0,0,160.225,42.595ZM154.94,40.9a0.471,0.471,0,0,1-.14.24,0.35,0.35,0,0,1-.22.067,0.722,0.722,0,0,1-.24-0.047c-0.089-.031-0.19-0.064-0.3-0.1s-0.233-.069-0.367-0.1a1.941,1.941,0,0,0-.44-0.047,1.489,1.489,0,0,0-.561.114,2.359,2.359,0,0,0-.58.354,4.326,4.326,0,0,0-.628.641,10.41,10.41,0,0,0-.7.988v7.42a0.365,0.365,0,0,1-.08.234,0.593,0.593,0,0,1-.274.167,2.373,2.373,0,0,1-.514.1c-0.213.022-.485,0.033-0.814,0.033s-0.6-.011-0.814-0.033a2.386,2.386,0,0,1-.514-0.1,0.584,0.584,0,0,1-.273-0.167,0.36,0.36,0,0,1-.08-0.234v-11.9a0.415,0.415,0,0,1,.066-0.234,0.493,0.493,0,0,1,.241-0.167,1.908,1.908,0,0,1,.447-0.1,5.864,5.864,0,0,1,.687-0.033,6.194,6.194,0,0,1,.707.033,1.607,1.607,0,0,1,.434.1,0.489,0.489,0,0,1,.22.167,0.408,0.408,0,0,1,.067.234v1.481a9.452,9.452,0,0,1,.881-1.1,5,5,0,0,1,.787-0.687,2.472,2.472,0,0,1,.748-0.354,2.872,2.872,0,0,1,.747-0.1c0.116,0,.24.007,0.374,0.02a3.617,3.617,0,0,1,.413.067,2.741,2.741,0,0,1,.374.107,0.741,0.741,0,0,1,.234.127,0.421,0.421,0,0,1,.106.147,1.109,1.109,0,0,1,.061.22,3.442,3.442,0,0,1,.04.42c0.008,0.187.013,0.44,0.013,0.761s-0.009.583-.027,0.787A2.4,2.4,0,0,1,154.94,40.9Zm-11.811,8.395a5.4,5.4,0,0,1-2.042,1.4,7.662,7.662,0,0,1-2.869.494,7.861,7.861,0,0,1-2.763-.44,4.971,4.971,0,0,1-1.949-1.281,5.262,5.262,0,0,1-1.147-2.069,9.632,9.632,0,0,1-.374-2.8,9.033,9.033,0,0,1,.407-2.783,5.854,5.854,0,0,1,1.221-2.162,5.444,5.444,0,0,1,2.036-1.395,7.606,7.606,0,0,1,2.862-.494,8.016,8.016,0,0,1,2.776.434,4.857,4.857,0,0,1,1.942,1.275,5.3,5.3,0,0,1,1.141,2.069,9.685,9.685,0,0,1,.374,2.816,9.093,9.093,0,0,1-.4,2.776A5.854,5.854,0,0,1,143.129,49.294Zm-1.982-6.426a3.8,3.8,0,0,0-.474-1.288,2.368,2.368,0,0,0-.887-0.854,2.853,2.853,0,0,0-1.4-.307,2.952,2.952,0,0,0-1.308.274,2.359,2.359,0,0,0-.921.8,3.833,3.833,0,0,0-.54,1.268,7.178,7.178,0,0,0-.18,1.688,8.344,8.344,0,0,0,.146,1.621,4.015,4.015,0,0,0,.474,1.288,2.256,2.256,0,0,0,.888.848,2.909,2.909,0,0,0,1.388.3,2.98,2.98,0,0,0,1.321-.274,2.362,2.362,0,0,0,.921-0.794,3.672,3.672,0,0,0,.534-1.261,7.474,7.474,0,0,0,.173-1.688A8.775,8.775,0,0,0,141.147,42.868Zm-13.419,4.978a1.189,1.189,0,0,0,1.094.487,2.245,2.245,0,0,0,.48-0.047,3.076,3.076,0,0,0,.381-0.107c0.111-.04.2-0.076,0.28-0.107a0.555,0.555,0,0,1,.207-0.047,0.282,0.282,0,0,1,.153.047,0.316,0.316,0,0,1,.114.187,2.818,2.818,0,0,1,.073.38,4.642,4.642,0,0,1,.034.614,4.188,4.188,0,0,1-.074.9,0.973,0.973,0,0,1-.193.44,1.05,1.05,0,0,1-.354.227,3.332,3.332,0,0,1-.547.173,5.711,5.711,0,0,1-.681.113,6.816,6.816,0,0,1-.74.04,5.324,5.324,0,0,1-1.735-.254,2.876,2.876,0,0,1-1.215-.781,3.25,3.25,0,0,1-.707-1.328,6.969,6.969,0,0,1-.227-1.9v-6.1h-1.428a0.425,0.425,0,0,1-.387-0.314,2.92,2.92,0,0,1-.134-1.048,5.233,5.233,0,0,1,.034-0.654,1.548,1.548,0,0,1,.1-0.42,0.486,0.486,0,0,1,.167-0.22,0.408,0.408,0,0,1,.233-0.067h1.415V35.415a0.414,0.414,0,0,1,.073-0.24,0.552,0.552,0,0,1,.267-0.18,2.131,2.131,0,0,1,.521-0.107q0.327-.033.807-0.033t0.821,0.033a2.026,2.026,0,0,1,.514.107,0.606,0.606,0,0,1,.267.18,0.394,0.394,0,0,1,.08.24V38.07h2.589a0.408,0.408,0,0,1,.233.067,0.486,0.486,0,0,1,.167.22,1.548,1.548,0,0,1,.1.42,5.432,5.432,0,0,1,.034.654,2.92,2.92,0,0,1-.134,1.048,0.425,0.425,0,0,1-.387.314h-2.6v5.592A2.778,2.778,0,0,0,127.728,47.846Zm-7.9,2.3a4.845,4.845,0,0,1-1.642.781,7.74,7.74,0,0,1-2.055.26,7.829,7.829,0,0,1-1.275-.1,7.7,7.7,0,0,1-1.087-.254,5.652,5.652,0,0,1-.8-0.314,1.963,1.963,0,0,1-.467-0.3,0.926,0.926,0,0,1-.227-0.44,3.7,3.7,0,0,1-.08-0.887,5.655,5.655,0,0,1,.027-0.621,1.53,1.53,0,0,1,.08-0.374,0.35,0.35,0,0,1,.133-0.187,0.394,0.394,0,0,1,.2-0.047,1,1,0,0,1,.434.167q0.287,0.167.714,0.367a7.567,7.567,0,0,0,.994.374,4.4,4.4,0,0,0,1.288.174,3.173,3.173,0,0,0,.808-0.093,2.047,2.047,0,0,0,.614-0.267,1.133,1.133,0,0,0,.393-0.441,1.354,1.354,0,0,0,.134-0.614,1.022,1.022,0,0,0-.247-0.687,2.207,2.207,0,0,0-.654-0.5,7.643,7.643,0,0,0-.921-0.4q-0.514-.187-1.054-0.414a9.61,9.61,0,0,1-1.055-.52,4.014,4.014,0,0,1-.92-0.721,3.255,3.255,0,0,1-.654-1.028,3.777,3.777,0,0,1-.247-1.441,3.665,3.665,0,0,1,.333-1.568,3.422,3.422,0,0,1,.961-1.221,4.558,4.558,0,0,1,1.528-.787,6.8,6.8,0,0,1,2.022-.28,7.252,7.252,0,0,1,1.088.08,7.972,7.972,0,0,1,.954.2,4.564,4.564,0,0,1,.721.26,2.38,2.38,0,0,1,.42.24,0.651,0.651,0,0,1,.18.2,0.839,0.839,0,0,1,.081.24c0.017,0.093.033,0.209,0.046,0.347s0.02,0.309.02,0.514c0,0.24-.006.436-0.02,0.587a1.527,1.527,0,0,1-.066.36,0.326,0.326,0,0,1-.127.18,0.365,0.365,0,0,1-.187.047,0.911,0.911,0,0,1-.374-0.14,6.687,6.687,0,0,0-.634-0.3,7.422,7.422,0,0,0-.881-0.3,4.236,4.236,0,0,0-1.141-.14,2.94,2.94,0,0,0-.787.093,1.492,1.492,0,0,0-.547.267,1.129,1.129,0,0,0-.321.407,1.192,1.192,0,0,0-.106.5,1,1,0,0,0,.253.694,2.325,2.325,0,0,0,.668.494,7.516,7.516,0,0,0,.94.4q0.528,0.187,1.068.407a9.878,9.878,0,0,1,1.068.514,4.055,4.055,0,0,1,.941.721,3.345,3.345,0,0,1,.667,1.021,3.571,3.571,0,0,1,.254,1.408,4,4,0,0,1-.381,1.788A3.559,3.559,0,0,1,119.827,50.148ZM107.856,36.282a2.279,2.279,0,0,1-1.529-.374,1.829,1.829,0,0,1-.393-1.348,1.927,1.927,0,0,1,.407-1.408,3.224,3.224,0,0,1,3.063-.013,1.832,1.832,0,0,1,.4,1.355,1.882,1.882,0,0,1-.414,1.4A2.276,2.276,0,0,1,107.856,36.282ZM102.21,50.148a4.848,4.848,0,0,1-1.641.781,8.076,8.076,0,0,1-4.418-.093,5.663,5.663,0,0,1-.8-0.314,1.971,1.971,0,0,1-.467-0.3,0.929,0.929,0,0,1-.227-0.44,3.683,3.683,0,0,1-.08-0.887,5.7,5.7,0,0,1,.027-0.621,1.588,1.588,0,0,1,.08-0.374,0.351,0.351,0,0,1,.133-0.187,0.393,0.393,0,0,1,.2-0.047,1,1,0,0,1,.434.167Q95.737,48,96.164,48.2a7.54,7.54,0,0,0,.994.374,4.4,4.4,0,0,0,1.288.174,3.17,3.17,0,0,0,.807-0.093,2.033,2.033,0,0,0,.614-0.267,1.135,1.135,0,0,0,.394-0.441,1.367,1.367,0,0,0,.133-0.614,1.017,1.017,0,0,0-.247-0.687,2.194,2.194,0,0,0-.654-0.5,7.577,7.577,0,0,0-.921-0.4q-0.514-.187-1.054-0.414a9.608,9.608,0,0,1-1.054-.52,4.013,4.013,0,0,1-.921-0.721,3.272,3.272,0,0,1-.654-1.028,3.781,3.781,0,0,1-.247-1.441,3.658,3.658,0,0,1,.334-1.568,3.411,3.411,0,0,1,.961-1.221,4.554,4.554,0,0,1,1.528-.787,6.794,6.794,0,0,1,2.022-.28,7.238,7.238,0,0,1,1.087.08,7.949,7.949,0,0,1,.955.2,4.586,4.586,0,0,1,.72.26,2.4,2.4,0,0,1,.421.24,0.678,0.678,0,0,1,.18.2,0.871,0.871,0,0,1,.08.24c0.018,0.093.033,0.209,0.047,0.347s0.02,0.309.02,0.514q0,0.36-.02.587a1.573,1.573,0,0,1-.067.36,0.321,0.321,0,0,1-.127.18,0.363,0.363,0,0,1-.187.047,0.911,0.911,0,0,1-.374-0.14,6.776,6.776,0,0,0-.633-0.3,7.548,7.548,0,0,0-.881-0.3,4.244,4.244,0,0,0-1.141-.14,2.942,2.942,0,0,0-.787.093,1.5,1.5,0,0,0-.547.267,1.124,1.124,0,0,0-.32.407,1.188,1.188,0,0,0-.107.5,1,1,0,0,0,.254.694,2.323,2.323,0,0,0,.667.494,7.537,7.537,0,0,0,.941.4q0.527,0.187,1.067.407a9.7,9.7,0,0,1,1.068.514,4.055,4.055,0,0,1,.941.721,3.327,3.327,0,0,1,.667,1.021,3.571,3.571,0,0,1,.254,1.408,4.014,4.014,0,0,1-.38,1.788A3.561,3.561,0,0,1,102.21,50.148ZM91.493,45.331H84.247a4.947,4.947,0,0,0,.18,1.381A2.635,2.635,0,0,0,85,47.766a2.5,2.5,0,0,0,1.014.661,4.34,4.34,0,0,0,1.488.227,8.358,8.358,0,0,0,1.548-.127,10.256,10.256,0,0,0,1.154-.28q0.487-.153.807-0.28a1.5,1.5,0,0,1,.52-0.127,0.393,0.393,0,0,1,.2.047,0.349,0.349,0,0,1,.133.167,1.117,1.117,0,0,1,.073.34q0.02,0.22.02,0.554,0,0.294-.013.5a3.188,3.188,0,0,1-.04.354,0.858,0.858,0,0,1-.08.247,0.928,0.928,0,0,1-.14.194,1.622,1.622,0,0,1-.474.253,7.489,7.489,0,0,1-.988.314,13.6,13.6,0,0,1-1.375.267,11.442,11.442,0,0,1-1.655.113,8.758,8.758,0,0,1-2.783-.4,4.952,4.952,0,0,1-2-1.214,5.049,5.049,0,0,1-1.194-2.055,9.65,9.65,0,0,1-.394-2.91,9.245,9.245,0,0,1,.414-2.863,6,6,0,0,1,1.2-2.162,5.164,5.164,0,0,1,1.915-1.355,6.589,6.589,0,0,1,2.542-.467,6.659,6.659,0,0,1,2.556.44A4.61,4.61,0,0,1,91.2,39.425a4.927,4.927,0,0,1,1,1.849,8.052,8.052,0,0,1,.32,2.322v0.534a1.3,1.3,0,0,1-.274.908A0.98,0.98,0,0,1,91.493,45.331Zm-2.8-4.384a2.195,2.195,0,0,0-1.875-.807,2.434,2.434,0,0,0-1.114.24,2.28,2.28,0,0,0-.787.647,2.952,2.952,0,0,0-.48.961,4.775,4.775,0,0,0-.194,1.181h5.018A3.453,3.453,0,0,0,88.7,40.946ZM79.655,40.9a0.47,0.47,0,0,1-.14.24,0.351,0.351,0,0,1-.22.067,0.73,0.73,0,0,1-.24-0.047q-0.134-.047-0.3-0.1t-0.367-.1a1.947,1.947,0,0,0-.44-0.047,1.487,1.487,0,0,0-.561.114,2.369,2.369,0,0,0-.581.354,4.309,4.309,0,0,0-.627.641,10.37,10.37,0,0,0-.7.988v7.42a0.363,0.363,0,0,1-.08.234,0.589,0.589,0,0,1-.274.167,2.379,2.379,0,0,1-.514.1q-0.32.033-.814,0.033t-0.814-.033a2.376,2.376,0,0,1-.514-0.1,0.588,0.588,0,0,1-.274-0.167,0.363,0.363,0,0,1-.08-0.234v-11.9a0.411,0.411,0,0,1,.067-0.234,0.489,0.489,0,0,1,.24-0.167,1.923,1.923,0,0,1,.447-0.1,5.875,5.875,0,0,1,.687-0.033,6.2,6.2,0,0,1,.707.033,1.61,1.61,0,0,1,.434.1,0.492,0.492,0,0,1,.22.167,0.413,0.413,0,0,1,.067.234v1.481a9.495,9.495,0,0,1,.881-1.1,4.983,4.983,0,0,1,.787-0.687,2.478,2.478,0,0,1,.747-0.354,2.874,2.874,0,0,1,.747-0.1q0.173,0,.374.02a3.629,3.629,0,0,1,.414.067,2.761,2.761,0,0,1,.374.107,0.741,0.741,0,0,1,.234.127,0.417,0.417,0,0,1,.107.147,1.177,1.177,0,0,1,.06.22,3.283,3.283,0,0,1,.04.42q0.013,0.28.013,0.761t-0.027.787A2.434,2.434,0,0,1,79.655,40.9Zm26.886-2.756a2.294,2.294,0,0,1,.514-0.113,8.282,8.282,0,0,1,1.628,0,2.307,2.307,0,0,1,.514.113,0.627,0.627,0,0,1,.273.173,0.36,0.36,0,0,1,.08.234V50.429a0.36,0.36,0,0,1-.08.234,0.584,0.584,0,0,1-.273.167,2.386,2.386,0,0,1-.514.1q-0.321.033-.814,0.033c-0.329,0-.6-0.011-0.814-0.033a2.373,2.373,0,0,1-.514-0.1,0.593,0.593,0,0,1-.274-0.167,0.365,0.365,0,0,1-.08-0.234V38.551a0.365,0.365,0,0,1,.08-0.234A0.637,0.637,0,0,1,106.541,38.144Z"/>
  <path id="railway" class="cls-3" d="M142.288,27.589l-1.563,4.31a0.591,0.591,0,0,1-.4.319,3.17,3.17,0,0,1-.97.111,3.7,3.7,0,0,1-.547-0.033,0.761,0.761,0,0,1-.319-0.111,0.276,0.276,0,0,1-.123-0.208,0.647,0.647,0,0,1,.065-0.312l1.614-4.075a0.722,0.722,0,0,1-.364-0.417l-4.18-11.2a1.289,1.289,0,0,1-.1-0.43,0.31,0.31,0,0,1,.1-0.247,0.651,0.651,0,0,1,.339-0.124,4.759,4.759,0,0,1,.625-0.033q0.39,0,.612.02a1.28,1.28,0,0,1,.351.072,0.371,0.371,0,0,1,.189.15,1.838,1.838,0,0,1,.124.267l3.346,9.4h0.039l3.229-9.453a0.58,0.58,0,0,1,.189-0.319,0.849,0.849,0,0,1,.332-0.1,4.708,4.708,0,0,1,.638-0.033,4.535,4.535,0,0,1,.6.033,0.7,0.7,0,0,1,.345.124,0.305,0.305,0,0,1,.11.247,1.288,1.288,0,0,1-.078.391Zm-9.18.039a2.725,2.725,0,0,1-.533.039,2.98,2.98,0,0,1-.541-0.039,0.645,0.645,0,0,1-.293-0.117,0.291,0.291,0,0,1-.091-0.234V26.1a5.784,5.784,0,0,1-1.712,1.276,4.542,4.542,0,0,1-2,.456,5.449,5.449,0,0,1-1.673-.241,3.622,3.622,0,0,1-1.276-.7,3.127,3.127,0,0,1-.82-1.12,3.711,3.711,0,0,1-.293-1.51,3.5,3.5,0,0,1,.4-1.719,3.359,3.359,0,0,1,1.158-1.211,5.707,5.707,0,0,1,1.849-.723,11.49,11.49,0,0,1,2.461-.241h1.615V19.464a4.51,4.51,0,0,0-.144-1.2,2.044,2.044,0,0,0-.462-0.866,1.988,1.988,0,0,0-.827-0.521,3.852,3.852,0,0,0-1.249-.176,4.976,4.976,0,0,0-1.426.189,7.649,7.649,0,0,0-1.107.417q-0.476.228-.794,0.417a1.1,1.1,0,0,1-.475.189,0.322,0.322,0,0,1-.183-0.052,0.441,0.441,0,0,1-.136-0.156,0.8,0.8,0,0,1-.085-0.267,2.2,2.2,0,0,1-.026-0.358,2.25,2.25,0,0,1,.046-0.514,0.743,0.743,0,0,1,.221-0.358,2.844,2.844,0,0,1,.605-0.4,6.725,6.725,0,0,1,.99-0.417,8.991,8.991,0,0,1,1.224-.312,7.3,7.3,0,0,1,1.341-.124,7.037,7.037,0,0,1,2.148.286,3.474,3.474,0,0,1,1.432.84,3.25,3.25,0,0,1,.8,1.374,6.685,6.685,0,0,1,.247,1.914v7.9a0.275,0.275,0,0,1-.1.234A0.735,0.735,0,0,1,133.108,27.628Zm-1.744-5.7h-1.836a6.932,6.932,0,0,0-1.537.15,3.159,3.159,0,0,0-1.08.443,1.831,1.831,0,0,0-.632.7,2.119,2.119,0,0,0-.2.944,1.891,1.891,0,0,0,.58,1.452,2.284,2.284,0,0,0,1.621.54,3.016,3.016,0,0,0,1.569-.43,6.762,6.762,0,0,0,1.517-1.315V21.925Zm-9.18-5.859L118.734,27.2a0.543,0.543,0,0,1-.124.234,0.56,0.56,0,0,1-.234.143,1.687,1.687,0,0,1-.41.072q-0.261.019-.651,0.019t-0.677-.026a2.164,2.164,0,0,1-.436-0.078,0.513,0.513,0,0,1-.241-0.143,0.6,0.6,0,0,1-.117-0.221l-2.461-8.5-0.026-.117-0.026.117-2.279,8.5a0.552,0.552,0,0,1-.123.234,0.574,0.574,0,0,1-.254.143,2.038,2.038,0,0,1-.437.072q-0.267.019-.657,0.019t-0.658-.026a2.112,2.112,0,0,1-.416-0.078,0.513,0.513,0,0,1-.241-0.143,0.6,0.6,0,0,1-.117-0.221l-3.425-11.132a3.04,3.04,0,0,1-.091-0.325,1.186,1.186,0,0,1-.026-0.221,0.319,0.319,0,0,1,.052-0.189,0.368,0.368,0,0,1,.176-0.117,1.2,1.2,0,0,1,.332-0.059c0.139-.009.308-0.013,0.508-0.013q0.365,0,.586.02a1.3,1.3,0,0,1,.338.065,0.335,0.335,0,0,1,.17.13,1.01,1.01,0,0,1,.091.2l2.825,9.661,0.026,0.117,0.026-.117,2.591-9.661a0.562,0.562,0,0,1,.085-0.2,0.365,0.365,0,0,1,.176-0.13,1.234,1.234,0,0,1,.319-0.065c0.134-.013.31-0.02,0.527-0.02s0.38,0.007.514,0.02a1.234,1.234,0,0,1,.319.065,0.343,0.343,0,0,1,.169.124,0.588,0.588,0,0,1,.079.182l2.8,9.687,0.026,0.117,0.013-.117,2.786-9.661a0.58,0.58,0,0,1,.085-0.2,0.369,0.369,0,0,1,.182-0.13,1.378,1.378,0,0,1,.339-0.065c0.143-.013.327-0.02,0.553-0.02q0.312,0,.5.013a0.861,0.861,0,0,1,.3.065,0.39,0.39,0,0,1,.156.117,0.318,0.318,0,0,1,.046.182,1.186,1.186,0,0,1-.026.221A2.855,2.855,0,0,1,122.184,16.066Zm-20.467,11.5a1.2,1.2,0,0,1-.326.078,4.473,4.473,0,0,1-.534.026,4.311,4.311,0,0,1-.52-0.026,1.3,1.3,0,0,1-.332-0.078,0.355,0.355,0,0,1-.17-0.124,0.319,0.319,0,0,1-.046-0.176V9.868a0.354,0.354,0,0,1,.046-0.182,0.338,0.338,0,0,1,.17-0.13,1.3,1.3,0,0,1,.332-0.078,4.312,4.312,0,0,1,.52-0.026,4.473,4.473,0,0,1,.534.026,1.2,1.2,0,0,1,.326.078,0.385,0.385,0,0,1,.169.13,0.319,0.319,0,0,1,.052.182V27.263a0.288,0.288,0,0,1-.052.176A0.409,0.409,0,0,1,101.717,27.563ZM94.725,12.889a1.513,1.513,0,0,1-1.035-.267,1.387,1.387,0,0,1-.28-1.009,1.415,1.415,0,0,1,.286-1.029,1.539,1.539,0,0,1,1.055-.273,1.515,1.515,0,0,1,1.035.267,1.389,1.389,0,0,1,.28,1.009,1.415,1.415,0,0,1-.287,1.029A1.539,1.539,0,0,1,94.725,12.889Zm-5.39,14.739a2.738,2.738,0,0,1-.534.039,2.97,2.97,0,0,1-.54-0.039,0.64,0.64,0,0,1-.293-0.117,0.292,0.292,0,0,1-.091-0.234V26.1a5.785,5.785,0,0,1-1.712,1.276,4.541,4.541,0,0,1-2,.456,5.448,5.448,0,0,1-1.673-.241,3.615,3.615,0,0,1-1.276-.7,3.124,3.124,0,0,1-.82-1.12,3.706,3.706,0,0,1-.293-1.51,3.493,3.493,0,0,1,.4-1.719,3.356,3.356,0,0,1,1.159-1.211,5.7,5.7,0,0,1,1.849-.723,11.486,11.486,0,0,1,2.461-.241H87.59V19.464a4.536,4.536,0,0,0-.143-1.2,2.056,2.056,0,0,0-.462-0.866,1.989,1.989,0,0,0-.827-0.521,3.856,3.856,0,0,0-1.25-.176,4.975,4.975,0,0,0-1.426.189,7.626,7.626,0,0,0-1.107.417q-0.475.228-.794,0.417a1.1,1.1,0,0,1-.475.189,0.321,0.321,0,0,1-.182-0.052,0.442,0.442,0,0,1-.137-0.156A0.8,0.8,0,0,1,80.7,17.44a2.256,2.256,0,0,1-.026-0.358,2.282,2.282,0,0,1,.046-0.514,0.745,0.745,0,0,1,.221-0.358,2.839,2.839,0,0,1,.605-0.4,6.677,6.677,0,0,1,.989-0.417,9,9,0,0,1,1.224-.312,7.313,7.313,0,0,1,1.341-.124,7.042,7.042,0,0,1,2.148.286,3.477,3.477,0,0,1,1.432.84,3.253,3.253,0,0,1,.794,1.374,6.656,6.656,0,0,1,.247,1.914v7.9a0.274,0.274,0,0,1-.1.234A0.733,0.733,0,0,1,89.335,27.628Zm-1.745-5.7H85.754a6.93,6.93,0,0,0-1.536.15,3.166,3.166,0,0,0-1.081.443,1.829,1.829,0,0,0-.631.7,2.11,2.11,0,0,0-.2.944,1.889,1.889,0,0,0,.579,1.452,2.285,2.285,0,0,0,1.621.54,3.015,3.015,0,0,0,1.569-.43,6.759,6.759,0,0,0,1.517-1.315V21.925ZM78.931,17.1a0.446,0.446,0,0,1-.1.169,0.22,0.22,0,0,1-.163.059,0.72,0.72,0,0,1-.254-0.059q-0.15-.058-0.339-0.117t-0.423-.111a2.347,2.347,0,0,0-.508-0.052,1.646,1.646,0,0,0-.638.13,2.493,2.493,0,0,0-.657.43,5.356,5.356,0,0,0-.723.794q-0.378.495-.833,1.211v7.708a0.291,0.291,0,0,1-.052.176,0.408,0.408,0,0,1-.169.124,1.2,1.2,0,0,1-.326.078,4.47,4.47,0,0,1-.534.026,4.33,4.33,0,0,1-.521-0.026,1.3,1.3,0,0,1-.332-0.078,0.356,0.356,0,0,1-.169-0.124,0.319,0.319,0,0,1-.046-0.176V15.545a0.363,0.363,0,0,1,.039-0.176,0.348,0.348,0,0,1,.156-0.13,0.882,0.882,0,0,1,.3-0.078,4.725,4.725,0,0,1,.482-0.02q0.286,0,.475.02a0.769,0.769,0,0,1,.293.078,0.415,0.415,0,0,1,.15.13,0.322,0.322,0,0,1,.046.176v1.706a9.189,9.189,0,0,1,.9-1.146,4.982,4.982,0,0,1,.8-0.7,2.477,2.477,0,0,1,.749-0.352,2.93,2.93,0,0,1,.749-0.1q0.169,0,.384.02a3.58,3.58,0,0,1,.449.072,3.941,3.941,0,0,1,.423.117,0.9,0.9,0,0,1,.267.13,0.369,0.369,0,0,1,.1.124,0.78,0.78,0,0,1,.046.15,1.683,1.683,0,0,1,.026.267Q79,16.014,79,16.313t-0.013.482A1.191,1.191,0,0,1,78.931,17.1Zm14.954-1.855a1.3,1.3,0,0,1,.332-0.078,4.328,4.328,0,0,1,.521-0.026,4.466,4.466,0,0,1,.534.026,1.2,1.2,0,0,1,.326.078,0.384,0.384,0,0,1,.169.13,0.3,0.3,0,0,1,.052.169V27.263a0.291,0.291,0,0,1-.052.176,0.407,0.407,0,0,1-.169.124,1.2,1.2,0,0,1-.326.078,4.469,4.469,0,0,1-.534.026,4.331,4.331,0,0,1-.521-0.026,1.3,1.3,0,0,1-.332-0.078,0.356,0.356,0,0,1-.169-0.124,0.319,0.319,0,0,1-.046-0.176V15.545a0.329,0.329,0,0,1,.046-0.169A0.338,0.338,0,0,1,93.885,15.246Z"/>
</svg>
