<svg xmlns="http://www.w3.org/2000/svg" width="175" height="150" viewBox="0 0 175 150">
  <defs>
    <style>
      .cls-1 {
        fill: #23267f;
      }

      .cls-1, .cls-2, .cls-3 {
        fill-rule: evenodd;
      }

      .cls-2 {
        fill: #fff;
      }
    </style>
  </defs>
  <path class="cls-1" d="M0,0V121H76l40-61Z"/>
  <path id="Shape_3_copy" data-name="Shape 3 copy" class="cls-2" d="M62.037,96.768L70,116H51.48L44,97.36c2.558-2.812,6.872-8.061,6.872-16.148C50.872,66.251,38.006,61.152,38,61H49C60.24,61,69.174,71.309,69.174,81.22A20.686,20.686,0,0,1,62.037,96.768ZM47.58,81.22a20.593,20.593,0,0,1-7.249,15.549L48,116H5V61H27C38.24,61,47.58,71.309,47.58,81.22Z"/>
  <path id="resistors" class="cls-3" d="M165.225,134.6a7.672,7.672,0,0,0,.941.4q0.526,0.188,1.068.407a9.739,9.739,0,0,1,1.067.514,4.03,4.03,0,0,1,.941.721,3.334,3.334,0,0,1,.668,1.021,3.588,3.588,0,0,1,.253,1.408,4.013,4.013,0,0,1-.38,1.788,3.56,3.56,0,0,1-1.075,1.294,4.821,4.821,0,0,1-1.641.781,7.72,7.72,0,0,1-2.055.26,7.807,7.807,0,0,1-1.275-.1,7.681,7.681,0,0,1-1.088-.253,5.6,5.6,0,0,1-.8-0.314,2,2,0,0,1-.468-0.3,0.927,0.927,0,0,1-.226-0.441,3.645,3.645,0,0,1-.08-0.887,5.705,5.705,0,0,1,.026-0.621,1.623,1.623,0,0,1,.08-0.373,0.348,0.348,0,0,1,.134-0.187,0.392,0.392,0,0,1,.2-0.047,1,1,0,0,1,.434.167q0.286,0.166.714,0.367a7.654,7.654,0,0,0,.994.374,4.422,4.422,0,0,0,1.288.173,3.185,3.185,0,0,0,.807-0.093,2.013,2.013,0,0,0,.614-0.267,1.133,1.133,0,0,0,.394-0.441,1.353,1.353,0,0,0,.133-0.614,1.019,1.019,0,0,0-.247-0.687,2.183,2.183,0,0,0-.653-0.5,7.562,7.562,0,0,0-.921-0.4q-0.514-.186-1.055-0.413a9.726,9.726,0,0,1-1.054-.521,4.006,4.006,0,0,1-.921-0.721,3.283,3.283,0,0,1-.654-1.027,3.781,3.781,0,0,1-.247-1.442,3.651,3.651,0,0,1,.334-1.568,3.407,3.407,0,0,1,.961-1.221,4.532,4.532,0,0,1,1.528-.787,6.787,6.787,0,0,1,2.022-.281,7.292,7.292,0,0,1,1.088.08,8.1,8.1,0,0,1,.954.2,4.482,4.482,0,0,1,.72.26,2.354,2.354,0,0,1,.421.24,0.69,0.69,0,0,1,.18.2,0.874,0.874,0,0,1,.08.241c0.018,0.093.033,0.209,0.047,0.347s0.02,0.309.02,0.513c0,0.241-.007.436-0.02,0.588a1.576,1.576,0,0,1-.067.36,0.316,0.316,0,0,1-.127.18,0.363,0.363,0,0,1-.187.047,0.915,0.915,0,0,1-.373-0.14,6.715,6.715,0,0,0-.634-0.3,7.753,7.753,0,0,0-.881-0.3,4.258,4.258,0,0,0-1.141-.14,2.945,2.945,0,0,0-.787.093,1.524,1.524,0,0,0-.548.267,1.133,1.133,0,0,0-.32.407,1.2,1.2,0,0,0-.107.5,1,1,0,0,0,.254.694A2.331,2.331,0,0,0,165.225,134.6ZM159.94,132.9a0.476,0.476,0,0,1-.14.24,0.347,0.347,0,0,1-.22.067,0.731,0.731,0,0,1-.24-0.047c-0.089-.031-0.19-0.065-0.3-0.1s-0.233-.069-0.367-0.1a1.94,1.94,0,0,0-.44-0.047,1.5,1.5,0,0,0-.561.113,2.374,2.374,0,0,0-.58.354,4.316,4.316,0,0,0-.628.641,10.459,10.459,0,0,0-.7.987v7.421a0.362,0.362,0,0,1-.08.233,0.588,0.588,0,0,1-.274.167,2.332,2.332,0,0,1-.514.1c-0.213.022-.485,0.034-0.814,0.034s-0.6-.012-0.814-0.034a2.345,2.345,0,0,1-.514-0.1,0.579,0.579,0,0,1-.273-0.167,0.356,0.356,0,0,1-.08-0.233v-11.9a0.411,0.411,0,0,1,.066-0.233,0.488,0.488,0,0,1,.241-0.167,1.864,1.864,0,0,1,.447-0.1,5.869,5.869,0,0,1,.687-0.034,6.186,6.186,0,0,1,.707.034,1.574,1.574,0,0,1,.434.1,0.483,0.483,0,0,1,.22.167,0.4,0.4,0,0,1,.067.233v1.481a9.579,9.579,0,0,1,.881-1.1,5,5,0,0,1,.787-0.687,2.478,2.478,0,0,1,.748-0.354,2.906,2.906,0,0,1,.747-0.1c0.116,0,.24.007,0.374,0.02a3.805,3.805,0,0,1,.413.067,2.712,2.712,0,0,1,.374.107,0.729,0.729,0,0,1,.234.127,0.417,0.417,0,0,1,.106.146,1.119,1.119,0,0,1,.061.221,3.423,3.423,0,0,1,.04.42c0.008,0.187.013,0.441,0.013,0.761s-0.009.583-.027,0.787A2.414,2.414,0,0,1,159.94,132.9Zm-11.811,8.394a5.407,5.407,0,0,1-2.042,1.4,7.664,7.664,0,0,1-2.869.493,7.852,7.852,0,0,1-2.763-.44,4.981,4.981,0,0,1-1.949-1.281,5.264,5.264,0,0,1-1.147-2.069,9.63,9.63,0,0,1-.374-2.8,9.034,9.034,0,0,1,.407-2.783,5.847,5.847,0,0,1,1.221-2.162,5.438,5.438,0,0,1,2.036-1.395,7.608,7.608,0,0,1,2.862-.494,8.015,8.015,0,0,1,2.776.434,4.851,4.851,0,0,1,1.942,1.275,5.3,5.3,0,0,1,1.141,2.068,9.69,9.69,0,0,1,.374,2.816,9.089,9.089,0,0,1-.4,2.776A5.849,5.849,0,0,1,148.129,141.294Zm-1.982-6.426a3.8,3.8,0,0,0-.474-1.288,2.375,2.375,0,0,0-.887-0.854,2.86,2.86,0,0,0-1.4-.307,2.956,2.956,0,0,0-1.308.274,2.351,2.351,0,0,0-.921.8,3.831,3.831,0,0,0-.54,1.267,7.183,7.183,0,0,0-.18,1.689,8.342,8.342,0,0,0,.146,1.621,4.017,4.017,0,0,0,.474,1.288,2.263,2.263,0,0,0,.888.848,2.911,2.911,0,0,0,1.388.3,2.973,2.973,0,0,0,1.321-.274,2.36,2.36,0,0,0,.921-0.794,3.669,3.669,0,0,0,.534-1.261,7.472,7.472,0,0,0,.173-1.688A8.783,8.783,0,0,0,146.147,134.868Zm-13.419,4.978a1.189,1.189,0,0,0,1.094.487,2.261,2.261,0,0,0,.48-0.046,3.009,3.009,0,0,0,.381-0.107c0.111-.04.2-0.076,0.28-0.107a0.556,0.556,0,0,1,.207-0.047,0.283,0.283,0,0,1,.153.047,0.317,0.317,0,0,1,.114.187,2.8,2.8,0,0,1,.073.38,4.64,4.64,0,0,1,.034.614,4.188,4.188,0,0,1-.074.9,0.98,0.98,0,0,1-.193.441,1.05,1.05,0,0,1-.354.226,3.3,3.3,0,0,1-.547.174,5.556,5.556,0,0,1-.681.113,6.741,6.741,0,0,1-.74.04,5.322,5.322,0,0,1-1.735-.253,2.873,2.873,0,0,1-1.215-.781,3.247,3.247,0,0,1-.707-1.328,6.968,6.968,0,0,1-.227-1.9v-6.1h-1.428a0.426,0.426,0,0,1-.387-0.314,2.917,2.917,0,0,1-.134-1.047,5.233,5.233,0,0,1,.034-0.654,1.558,1.558,0,0,1,.1-0.421,0.488,0.488,0,0,1,.167-0.22,0.412,0.412,0,0,1,.233-0.067h1.415v-2.656a0.417,0.417,0,0,1,.073-0.24,0.552,0.552,0,0,1,.267-0.18,2.153,2.153,0,0,1,.521-0.107q0.327-.033.807-0.033t0.821,0.033a2.047,2.047,0,0,1,.514.107,0.607,0.607,0,0,1,.267.18,0.4,0.4,0,0,1,.08.24v2.656h2.589a0.412,0.412,0,0,1,.233.067,0.488,0.488,0,0,1,.167.22,1.558,1.558,0,0,1,.1.421,5.433,5.433,0,0,1,.034.654,2.917,2.917,0,0,1-.134,1.047,0.426,0.426,0,0,1-.387.314h-2.6v5.592A2.776,2.776,0,0,0,132.728,139.846Zm-7.9,2.3a4.836,4.836,0,0,1-1.642.781,7.72,7.72,0,0,1-2.055.26,7.807,7.807,0,0,1-1.275-.1,7.665,7.665,0,0,1-1.087-.253,5.612,5.612,0,0,1-.8-0.314,1.986,1.986,0,0,1-.467-0.3,0.927,0.927,0,0,1-.227-0.441,3.7,3.7,0,0,1-.08-0.887,5.665,5.665,0,0,1,.027-0.621,1.523,1.523,0,0,1,.08-0.373,0.347,0.347,0,0,1,.133-0.187,0.4,0.4,0,0,1,.2-0.047,1,1,0,0,1,.434.167q0.287,0.166.714,0.367a7.71,7.71,0,0,0,.994.374,4.427,4.427,0,0,0,1.288.173,3.187,3.187,0,0,0,.808-0.093,2.034,2.034,0,0,0,.614-0.267,1.138,1.138,0,0,0,.393-0.441,1.353,1.353,0,0,0,.134-0.614,1.024,1.024,0,0,0-.247-0.687,2.2,2.2,0,0,0-.654-0.5,7.562,7.562,0,0,0-.921-0.4q-0.514-.186-1.054-0.413a9.74,9.74,0,0,1-1.055-.521,4.022,4.022,0,0,1-.92-0.721,3.248,3.248,0,0,1-.654-1.027,3.781,3.781,0,0,1-.247-1.442,3.665,3.665,0,0,1,.333-1.568,3.418,3.418,0,0,1,.961-1.221,4.541,4.541,0,0,1,1.528-.787,6.792,6.792,0,0,1,2.022-.281,7.292,7.292,0,0,1,1.088.08,8.1,8.1,0,0,1,.954.2,4.5,4.5,0,0,1,.721.26,2.338,2.338,0,0,1,.42.24,0.662,0.662,0,0,1,.18.2,0.842,0.842,0,0,1,.081.241c0.017,0.093.033,0.209,0.046,0.347s0.02,0.309.02,0.513c0,0.241-.006.436-0.02,0.588a1.53,1.53,0,0,1-.066.36,0.325,0.325,0,0,1-.127.18,0.368,0.368,0,0,1-.187.047,0.917,0.917,0,0,1-.374-0.14,6.6,6.6,0,0,0-.634-0.3,7.686,7.686,0,0,0-.881-0.3,4.253,4.253,0,0,0-1.141-.14,2.95,2.95,0,0,0-.787.093,1.511,1.511,0,0,0-.547.267,1.136,1.136,0,0,0-.321.407,1.2,1.2,0,0,0-.106.5,1,1,0,0,0,.253.694,2.336,2.336,0,0,0,.668.494,7.654,7.654,0,0,0,.94.4q0.528,0.188,1.068.407a9.841,9.841,0,0,1,1.068.514,4.051,4.051,0,0,1,.941.721,3.332,3.332,0,0,1,.667,1.021,3.57,3.57,0,0,1,.254,1.408,4,4,0,0,1-.381,1.788A3.558,3.558,0,0,1,124.827,142.148Zm-11.971-13.866a2.279,2.279,0,0,1-1.529-.374,1.829,1.829,0,0,1-.393-1.348,1.927,1.927,0,0,1,.407-1.408,3.228,3.228,0,0,1,3.063-.013,1.833,1.833,0,0,1,.4,1.355,1.882,1.882,0,0,1-.414,1.4A2.277,2.277,0,0,1,112.856,128.282Zm-5.646,13.866a4.839,4.839,0,0,1-1.641.781,8.094,8.094,0,0,1-4.418-.093,5.66,5.66,0,0,1-.8-0.314,2,2,0,0,1-.467-0.3,0.93,0.93,0,0,1-.227-0.441,3.68,3.68,0,0,1-.08-0.887,5.677,5.677,0,0,1,.027-0.621,1.576,1.576,0,0,1,.08-0.373,0.348,0.348,0,0,1,.133-0.187,0.394,0.394,0,0,1,.2-0.047,1,1,0,0,1,.433.167q0.288,0.166.714,0.367a7.672,7.672,0,0,0,1,.374,4.422,4.422,0,0,0,1.288.173,3.185,3.185,0,0,0,.807-0.093,2.023,2.023,0,0,0,.614-0.267,1.141,1.141,0,0,0,.394-0.441,1.366,1.366,0,0,0,.133-0.614,1.019,1.019,0,0,0-.247-0.687,2.188,2.188,0,0,0-.654-0.5,7.428,7.428,0,0,0-.921-0.4q-0.513-.186-1.054-0.413a9.726,9.726,0,0,1-1.054-.521,4.006,4.006,0,0,1-.921-0.721,3.25,3.25,0,0,1-.654-1.027,3.787,3.787,0,0,1-.247-1.442,3.658,3.658,0,0,1,.334-1.568,3.4,3.4,0,0,1,.961-1.221,4.532,4.532,0,0,1,1.528-.787,6.782,6.782,0,0,1,2.022-.281,7.279,7.279,0,0,1,1.087.08,8.08,8.08,0,0,1,.955.2,4.518,4.518,0,0,1,.72.26,2.354,2.354,0,0,1,.421.24,0.69,0.69,0,0,1,.18.2,0.874,0.874,0,0,1,.08.241c0.018,0.093.033,0.209,0.047,0.347s0.02,0.309.02,0.513c0,0.241-.007.436-0.02,0.588a1.576,1.576,0,0,1-.067.36,0.32,0.32,0,0,1-.127.18,0.366,0.366,0,0,1-.187.047,0.91,0.91,0,0,1-.373-0.14,6.837,6.837,0,0,0-.634-0.3,7.822,7.822,0,0,0-.881-0.3,4.258,4.258,0,0,0-1.141-.14,2.958,2.958,0,0,0-.788.093,1.519,1.519,0,0,0-.547.267,1.133,1.133,0,0,0-.32.407,1.18,1.18,0,0,0-.107.5,0.992,0.992,0,0,0,.254.694,2.317,2.317,0,0,0,.667.494,7.672,7.672,0,0,0,.941.4q0.526,0.188,1.067.407a9.666,9.666,0,0,1,1.068.514,4.051,4.051,0,0,1,.941.721,3.314,3.314,0,0,1,.667,1.021,3.57,3.57,0,0,1,.254,1.408,4.013,4.013,0,0,1-.38,1.788A3.56,3.56,0,0,1,107.21,142.148Zm-10.717-4.817H89.247a4.947,4.947,0,0,0,.18,1.381A2.632,2.632,0,0,0,90,139.766a2.5,2.5,0,0,0,1.014.661,4.35,4.35,0,0,0,1.488.227,8.331,8.331,0,0,0,1.548-.127,10.46,10.46,0,0,0,1.154-.28c0.325-.1.594-0.2,0.807-0.281a1.506,1.506,0,0,1,.52-0.126,0.394,0.394,0,0,1,.2.046,0.353,0.353,0,0,1,.133.167,1.12,1.12,0,0,1,.073.34c0.013,0.147.02,0.332,0.02,0.554q0,0.294-.013.5a3.153,3.153,0,0,1-.04.353,0.851,0.851,0,0,1-.08.247,0.923,0.923,0,0,1-.14.194,1.618,1.618,0,0,1-.474.253,7.425,7.425,0,0,1-.988.314,13.712,13.712,0,0,1-1.375.267,11.516,11.516,0,0,1-1.655.113,8.759,8.759,0,0,1-2.783-.4,4.962,4.962,0,0,1-2-1.214,5.051,5.051,0,0,1-1.194-2.056,9.646,9.646,0,0,1-.394-2.909,9.247,9.247,0,0,1,.414-2.863,6.006,6.006,0,0,1,1.2-2.162,5.166,5.166,0,0,1,1.915-1.355,7.383,7.383,0,0,1,5.1-.026,4.6,4.6,0,0,1,1.742,1.221,4.927,4.927,0,0,1,1,1.848,8.055,8.055,0,0,1,.32,2.323v0.533a1.3,1.3,0,0,1-.274.908A0.98,0.98,0,0,1,96.493,137.331Zm-2.8-4.385a2.2,2.2,0,0,0-1.875-.807,2.436,2.436,0,0,0-1.114.24,2.282,2.282,0,0,0-.787.647,2.958,2.958,0,0,0-.48.961,4.78,4.78,0,0,0-.194,1.181h5.018A3.456,3.456,0,0,0,93.7,132.946Zm-9.042-.046a0.476,0.476,0,0,1-.14.24,0.348,0.348,0,0,1-.22.067,0.739,0.739,0,0,1-.24-0.047c-0.089-.031-0.189-0.065-0.3-0.1s-0.234-.069-0.367-0.1a1.947,1.947,0,0,0-.44-0.047,1.5,1.5,0,0,0-.561.113,2.384,2.384,0,0,0-.581.354,4.3,4.3,0,0,0-.627.641,10.418,10.418,0,0,0-.7.987v7.421a0.36,0.36,0,0,1-.08.233,0.583,0.583,0,0,1-.274.167,2.338,2.338,0,0,1-.514.1c-0.214.022-.485,0.034-0.814,0.034s-0.6-.012-0.814-0.034a2.335,2.335,0,0,1-.514-0.1,0.582,0.582,0,0,1-.273-0.167,0.36,0.36,0,0,1-.08-0.233v-11.9a0.407,0.407,0,0,1,.067-0.233,0.484,0.484,0,0,1,.24-0.167,1.878,1.878,0,0,1,.447-0.1,5.881,5.881,0,0,1,.687-0.034,6.208,6.208,0,0,1,.707.034,1.577,1.577,0,0,1,.434.1,0.486,0.486,0,0,1,.22.167,0.408,0.408,0,0,1,.067.233v1.481a9.623,9.623,0,0,1,.881-1.1,4.975,4.975,0,0,1,.787-0.687,2.484,2.484,0,0,1,.747-0.354,2.908,2.908,0,0,1,.747-0.1c0.115,0,.24.007,0.374,0.02a3.819,3.819,0,0,1,.414.067,2.731,2.731,0,0,1,.374.107,0.729,0.729,0,0,1,.234.127,0.413,0.413,0,0,1,.107.146,1.187,1.187,0,0,1,.06.221,3.266,3.266,0,0,1,.04.42q0.013,0.28.013,0.761c0,0.32-.009.583-0.027,0.787A2.451,2.451,0,0,1,84.656,132.9Zm-14.368,9.689L68.725,146.9a0.59,0.59,0,0,1-.4.319,3.156,3.156,0,0,1-.97.111,3.791,3.791,0,0,1-.547-0.032,0.764,0.764,0,0,1-.319-0.111,0.28,0.28,0,0,1-.124-0.208,0.65,0.65,0,0,1,.065-0.313l1.615-4.075a0.728,0.728,0,0,1-.365-0.417l-4.179-11.2a1.307,1.307,0,0,1-.1-0.43,0.311,0.311,0,0,1,.1-0.247,0.652,0.652,0,0,1,.338-0.124,4.687,4.687,0,0,1,.625-0.033q0.391,0,.612.02a1.263,1.263,0,0,1,.352.072,0.368,0.368,0,0,1,.189.149,1.822,1.822,0,0,1,.124.267l3.346,9.4h0.039l3.229-9.453a0.581,0.581,0,0,1,.189-0.319,0.87,0.87,0,0,1,.332-0.1,4.636,4.636,0,0,1,.638-0.033,4.439,4.439,0,0,1,.6.033,0.7,0.7,0,0,1,.345.124,0.3,0.3,0,0,1,.111.247,1.292,1.292,0,0,1-.078.391Zm-9.179.039a2.738,2.738,0,0,1-.534.039,2.97,2.97,0,0,1-.54-0.039,0.641,0.641,0,0,1-.293-0.117,0.293,0.293,0,0,1-.091-0.235V141.1a5.772,5.772,0,0,1-1.712,1.276,4.538,4.538,0,0,1-2,.456,5.432,5.432,0,0,1-1.673-.241,3.6,3.6,0,0,1-1.276-.7,3.124,3.124,0,0,1-.82-1.12,3.707,3.707,0,0,1-.293-1.51,3.493,3.493,0,0,1,.4-1.719,3.354,3.354,0,0,1,1.159-1.211,5.705,5.705,0,0,1,1.849-.723,11.521,11.521,0,0,1,2.461-.24h1.614v-0.912a4.538,4.538,0,0,0-.143-1.2,2.062,2.062,0,0,0-.462-0.866,1.993,1.993,0,0,0-.827-0.52,3.831,3.831,0,0,0-1.25-.176,4.969,4.969,0,0,0-1.426.189,7.735,7.735,0,0,0-1.107.416q-0.476.228-.794,0.417a1.1,1.1,0,0,1-.475.189,0.326,0.326,0,0,1-.182-0.052,0.446,0.446,0,0,1-.137-0.157,0.8,0.8,0,0,1-.085-0.266,2.731,2.731,0,0,1,.02-0.873,0.744,0.744,0,0,1,.221-0.358,2.83,2.83,0,0,1,.605-0.4,6.655,6.655,0,0,1,.989-0.417,9.035,9.035,0,0,1,1.224-.312,7.261,7.261,0,0,1,1.341-.124,7.034,7.034,0,0,1,2.148.287,3.486,3.486,0,0,1,1.432.839,3.254,3.254,0,0,1,.794,1.374,6.657,6.657,0,0,1,.247,1.914v7.9a0.276,0.276,0,0,1-.1.235A0.733,0.733,0,0,1,61.108,142.628Zm-1.745-5.7H57.528a6.911,6.911,0,0,0-1.536.15,3.173,3.173,0,0,0-1.081.442,1.838,1.838,0,0,0-.632.7,2.114,2.114,0,0,0-.2.944,1.889,1.889,0,0,0,.579,1.452,2.286,2.286,0,0,0,1.621.541,3.02,3.02,0,0,0,1.569-.43,6.783,6.783,0,0,0,1.517-1.315v-2.487Zm-9.179-5.859L46.734,142.2a0.541,0.541,0,0,1-.124.234,0.57,0.57,0,0,1-.234.144,1.715,1.715,0,0,1-.41.071q-0.261.019-.651,0.02t-0.677-.026a2.25,2.25,0,0,1-.436-0.078,0.517,0.517,0,0,1-.241-0.144,0.592,0.592,0,0,1-.117-0.221l-2.461-8.5-0.026-.117-0.026.117-2.279,8.5a0.541,0.541,0,0,1-.124.234,0.569,0.569,0,0,1-.254.144,2.074,2.074,0,0,1-.436.071q-0.267.019-.657,0.02t-0.657-.026a2.206,2.206,0,0,1-.417-0.078,0.517,0.517,0,0,1-.241-0.144,0.59,0.59,0,0,1-.117-0.221l-3.424-11.132a2.747,2.747,0,0,1-.091-0.326,1.136,1.136,0,0,1-.026-0.221,0.315,0.315,0,0,1,.052-0.189,0.376,0.376,0,0,1,.176-0.117,1.229,1.229,0,0,1,.332-0.059c0.139-.008.308-0.013,0.508-0.013q0.364,0,.586.02a1.309,1.309,0,0,1,.338.065,0.336,0.336,0,0,1,.169.13,1,1,0,0,1,.091.2l2.825,9.661,0.026,0.117,0.026-.117,2.591-9.661a0.571,0.571,0,0,1,.085-0.2,0.375,0.375,0,0,1,.176-0.13,1.251,1.251,0,0,1,.319-0.065c0.134-.013.31-0.02,0.527-0.02s0.38,0.007.514,0.02a1.253,1.253,0,0,1,.319.065,0.35,0.35,0,0,1,.169.124,0.587,0.587,0,0,1,.078.182l2.8,9.687,0.026,0.117,0.013-.117,2.786-9.661a0.571,0.571,0,0,1,.085-0.2,0.373,0.373,0,0,1,.182-0.13,1.39,1.39,0,0,1,.338-0.065c0.143-.013.328-0.02,0.553-0.02,0.208,0,.375,0,0.5.013a0.854,0.854,0,0,1,.3.066,0.378,0.378,0,0,1,.156.117,0.313,0.313,0,0,1,.045.182,1.151,1.151,0,0,1-.026.221A2.829,2.829,0,0,1,50.184,131.066Zm-20.468,11.5a1.244,1.244,0,0,1-.325.078,4.533,4.533,0,0,1-.534.026,4.393,4.393,0,0,1-.521-0.026A1.347,1.347,0,0,1,28,142.563a0.357,0.357,0,0,1-.169-0.124,0.32,0.32,0,0,1-.046-0.176v-17.4a0.354,0.354,0,0,1,.046-0.182,0.34,0.34,0,0,1,.169-0.13,1.262,1.262,0,0,1,.332-0.078,4.189,4.189,0,0,1,.521-0.026,4.326,4.326,0,0,1,.534.026,1.168,1.168,0,0,1,.325.078,0.385,0.385,0,0,1,.169.13,0.322,0.322,0,0,1,.052.182v17.4a0.292,0.292,0,0,1-.052.176A0.409,0.409,0,0,1,29.717,142.563Zm-6.992-14.674a1.514,1.514,0,0,1-1.035-.267,1.387,1.387,0,0,1-.28-1.009,1.417,1.417,0,0,1,.286-1.029,1.541,1.541,0,0,1,1.055-.273,1.514,1.514,0,0,1,1.035.267,1.388,1.388,0,0,1,.28,1.009,1.418,1.418,0,0,1-.287,1.029A1.541,1.541,0,0,1,22.725,127.889Zm-5.39,14.739a2.738,2.738,0,0,1-.534.039,2.97,2.97,0,0,1-.54-0.039,0.641,0.641,0,0,1-.293-0.117,0.293,0.293,0,0,1-.091-0.235V141.1a5.771,5.771,0,0,1-1.712,1.276,4.537,4.537,0,0,1-2,.456,5.432,5.432,0,0,1-1.673-.241,3.605,3.605,0,0,1-1.276-.7,3.125,3.125,0,0,1-.82-1.12,3.707,3.707,0,0,1-.293-1.51,3.493,3.493,0,0,1,.4-1.719,3.355,3.355,0,0,1,1.159-1.211,5.706,5.706,0,0,1,1.849-.723,11.522,11.522,0,0,1,2.461-.24H15.59v-0.912a4.542,4.542,0,0,0-.143-1.2,2.062,2.062,0,0,0-.462-0.866,1.993,1.993,0,0,0-.827-0.52,3.831,3.831,0,0,0-1.25-.176,4.968,4.968,0,0,0-1.426.189,7.735,7.735,0,0,0-1.107.416q-0.476.228-.794,0.417a1.1,1.1,0,0,1-.475.189,0.326,0.326,0,0,1-.182-0.052,0.445,0.445,0,0,1-.137-0.157A0.8,0.8,0,0,1,8.7,132.44a2.726,2.726,0,0,1,.02-0.873,0.744,0.744,0,0,1,.221-0.358,2.832,2.832,0,0,1,.605-0.4,6.657,6.657,0,0,1,.99-0.417,9.035,9.035,0,0,1,1.224-.312,7.261,7.261,0,0,1,1.341-.124,7.034,7.034,0,0,1,2.148.287,3.485,3.485,0,0,1,1.432.839,3.253,3.253,0,0,1,.794,1.374,6.657,6.657,0,0,1,.247,1.914v7.9a0.276,0.276,0,0,1-.1.235A0.733,0.733,0,0,1,17.335,142.628Zm-1.745-5.7H13.754a6.911,6.911,0,0,0-1.536.15,3.173,3.173,0,0,0-1.081.442,1.838,1.838,0,0,0-.632.7,2.114,2.114,0,0,0-.2.944,1.889,1.889,0,0,0,.579,1.452,2.286,2.286,0,0,0,1.621.541,3.02,3.02,0,0,0,1.569-.43,6.785,6.785,0,0,0,1.517-1.315v-2.487ZM6.931,132.1a0.443,0.443,0,0,1-.1.169,0.221,0.221,0,0,1-.163.059,0.724,0.724,0,0,1-.254-0.059q-0.15-.059-0.339-0.117t-0.423-.111a2.385,2.385,0,0,0-.508-0.052,1.642,1.642,0,0,0-.638.131,2.481,2.481,0,0,0-.658.429,5.4,5.4,0,0,0-.723.794q-0.378.5-.833,1.211v7.708a0.292,0.292,0,0,1-.052.176,0.41,0.41,0,0,1-.169.124,1.244,1.244,0,0,1-.326.078,4.535,4.535,0,0,1-.534.026,4.393,4.393,0,0,1-.521-0.026,1.348,1.348,0,0,1-.332-0.078,0.357,0.357,0,0,1-.169-0.124,0.32,0.32,0,0,1-.046-0.176V130.545a0.366,0.366,0,0,1,.039-0.176,0.351,0.351,0,0,1,.156-0.13,0.884,0.884,0,0,1,.3-0.078,4.706,4.706,0,0,1,.482-0.02,4.752,4.752,0,0,1,.475.02,0.771,0.771,0,0,1,.293.078,0.418,0.418,0,0,1,.15.13,0.324,0.324,0,0,1,.046.176v1.706a9.143,9.143,0,0,1,.9-1.146,5.028,5.028,0,0,1,.8-0.7,2.48,2.48,0,0,1,.749-0.351,2.934,2.934,0,0,1,.749-0.1c0.113,0,.241.007,0.384,0.02a3.685,3.685,0,0,1,.449.071,4.063,4.063,0,0,1,.423.117,0.889,0.889,0,0,1,.267.131,0.363,0.363,0,0,1,.1.123,0.777,0.777,0,0,1,.046.15,1.684,1.684,0,0,1,.026.267c0,0.117.007,0.276,0.007,0.475s0,0.352-.013.482A1.2,1.2,0,0,1,6.931,132.1Zm14.954-1.855a1.3,1.3,0,0,1,.332-0.079,4.394,4.394,0,0,1,.521-0.026,4.536,4.536,0,0,1,.534.026,1.2,1.2,0,0,1,.326.079,0.379,0.379,0,0,1,.169.13,0.3,0.3,0,0,1,.052.169v11.718a0.292,0.292,0,0,1-.052.176,0.41,0.41,0,0,1-.169.124,1.246,1.246,0,0,1-.326.078,4.536,4.536,0,0,1-.534.026,4.394,4.394,0,0,1-.521-0.026,1.349,1.349,0,0,1-.332-0.078,0.358,0.358,0,0,1-.169-0.124,0.32,0.32,0,0,1-.046-0.176V130.545a0.327,0.327,0,0,1,.046-0.169A0.335,0.335,0,0,1,21.885,130.246Zm89.656-.1a2.3,2.3,0,0,1,.514-0.114,8.3,8.3,0,0,1,1.628,0,2.309,2.309,0,0,1,.514.114,0.624,0.624,0,0,1,.273.173,0.361,0.361,0,0,1,.08.234v11.878a0.356,0.356,0,0,1-.08.233,0.579,0.579,0,0,1-.273.167,2.345,2.345,0,0,1-.514.1c-0.214.022-.485,0.034-0.814,0.034s-0.6-.012-0.814-0.034a2.332,2.332,0,0,1-.514-0.1,0.588,0.588,0,0,1-.274-0.167,0.362,0.362,0,0,1-.08-0.233V130.551a0.367,0.367,0,0,1,.08-0.234A0.634,0.634,0,0,1,111.541,130.144Z"/>
</svg>
